PathFileType	4	(x/y/z)	S10_PSF_T11
DataRate	CameraRate	NumFrames	NumMarkers	Units	OrigDataRate	OrigDataStartFrame	OrigNumFrames
240	240	10	51	mm	240	231	460
Frame#	Time	Sternum			R.Acromium			L.Acromium			Top.Head			R.ASIS			L.ASIS			R.PSIS			L.PSIS			R.Great.Tro			L.Great.Tro			R.Iliac.Crest			L.Iliac.Crest			V.Sacral			R.Thigh.Upper.Post			R.Thigh.Lower.Ant			R.Thigh.Lower.Post			R.Thigh.Upper.Ant			R.Knee.Lat			R.Knee.Med			R.Shank.Upper.Post			R.Shank.Lower.Ant			R.Shank.Lower.Post			R.Shank.Upper.Ant			R.Ankle.Lat			R.Ankle.Med			R.Heel.Upper			R.Heel.Med			R.Heel.Lat			R.Toe.Lat			R.Toe.Med			R.Toe.Tip			L.Thigh.Upper.Post			L.Thigh.Lower.Ant			L.Thigh.Lower.Post			L.Thigh.Upper.Ant			L.Knee.Lat			L.Knee.Med			L.Shank.Upper.Post			L.Shank.Lower.Ant			L.Shank.Lower.Post			L.Shank.Upper.Ant			L.Ankle.Lat			L.Ankle.Med			L.Heel.Upper			L.Heel.Med			L.Heel.Lat			L.Toe.Lat			L.Toe.Med			L.Toe.Tip			Cervical.Spine			Back			
		X1	Y1	Z1	X2	Y2	Z2	X3	Y3	Z3	X4	Y4	Z4	X5	Y5	Z5	X6	Y6	Z6	X7	Y7	Z7	X8	Y8	Z8	X9	Y9	Z9	X10	Y10	Z10	X11	Y11	Z11	X12	Y12	Z12	X13	Y13	Z13	X14	Y14	Z14	X15	Y15	Z15	X16	Y16	Z16	X17	Y17	Z17	X18	Y18	Z18	X19	Y19	Z19	X20	Y20	Z20	X21	Y21	Z21	X22	Y22	Z22	X23	Y23	Z23	X24	Y24	Z24	X25	Y25	Z25	X26	Y26	Z26	X27	Y27	Z27	X28	Y28	Z28	X29	Y29	Z29	X30	Y30	Z30	X31	Y31	Z31	X32	Y32	Z32	X33	Y33	Z33	X34	Y34	Z34	X35	Y35	Z35	X36	Y36	Z36	X37	Y37	Z37	X38	Y38	Z38	X39	Y39	Z39	X40	Y40	Z40	X41	Y41	Z41	X42	Y42	Z42	X43	Y43	Z43	X44	Y44	Z44	X45	Y45	Z45	X46	Y46	Z46	X47	Y47	Z47	X48	Y48	Z48	X49	Y49	Z49	X50	Y50	Z50	X51	Y51	Z51	

231	0.95833	-243.77	1283.7	322.35	-335.47	1441.2	490.05	-387.2	1457	188.48	-400.15	1754.1	360.14	-287.15	1009.2	440.85	-308.73	1030.4	212.96	-496.14	1030.2	370.98	-498.46	1037.3	290.53	-356.24	931.04	518.42	-370.6	968.07	157.67	-375.26	1088.8	493.11	-378.63	1102.5	193.74	-517.86	998.72	336.08	-367.32	719.25	498.76	-324.14	638.33	453.11	-385.77	632.54	483.85	-303.35	726.67	464.38	-413.36	510.15	442.57	-430.07	521.67	316.18	-514.59	294.95	439.7	-459.71	225.7	416.88	-523.37	221.84	430.49	-444.31	301.27	425.84	-521.47	112.93	402.88	-515.06	127.38	324.61	-591.79	67.829	358.11	-581.87	38.333	332.04	-585.64	43.703	393.28	-412.69	40.077	436.85	-384.12	42.503	326.5	-325.21	57.571	369.49	-288.64	693.58	149.46	-186.66	651.57	161.18	-246.45	608.94	167.85	-221.48	733.69	142.44	-191.47	545.89	170.63	-152.54	546.72	296.31	-288.38	352.01	182.06	-238.13	254.14	178.49	-297.66	275.33	188.27	-228.66	330.14	172.08	-289.61	146.3	190.81	-256.64	152.19	271.53	-348.9	126.9	246.88	-338.28	93.156	277.65	-354.66	97.127	215.68	-194.46	52.528	147.39	-147.93	54.97	246.26	-103.06	61.294	191.15	-439.83	1501.7	362.83	-525.02	1294	362.21
232	0.9625	-238.68	1283	322.18	-329.88	1440.8	489.82	-382.43	1456.2	188.36	-394.93	1753.5	359.68	-282.21	1008.4	440.77	-303.67	1030	212.94	-491.14	1029.7	370.74	-493.43	1036.9	290.29	-351.75	930.31	518.27	-365.39	967.8	157.48	-370.27	1088	493.02	-373.47	1102.1	193.68	-512.86	998.27	335.79	-364.45	718.81	498.8	-321.91	637.49	453.23	-383.61	632.23	483.94	-300.41	725.68	464.47	-412.36	510	442.84	-428.84	521.59	316.39	-514.24	295.17	439.77	-459.47	225.8	417.1	-523.18	222.09	430.52	-443.93	301.34	426.08	-521.35	113.06	402.86	-514.8	127.51	324.63	-591.7	67.882	358.07	-581.82	38.421	332.03	-585.61	43.793	393.24	-412.68	40.041	436.88	-384.06	42.469	326.54	-325.14	57.479	369.56	-283.22	693.33	149.48	-181.52	651.16	161.82	-241.17	608.63	168.02	-216.02	733.41	142.93	-185.93	545.44	170.99	-147.87	546.34	296.82	-278.02	348.74	181.47	-224.99	252.34	178.1	-285.15	271.82	187.57	-217.65	328.56	171.8	-273.47	143.06	189.91	-240.92	149.6	270.87	-332.29	121.86	245.75	-320.86	88.374	276.55	-337.11	91.988	214.51	-175.52	51.929	146.77	-129.43	55.494	245.81	-84.559	63.146	190.86	-434.59	1501.1	362.85	-519.87	1293.4	362.58
233	0.96667	-233.56	1282.3	321.99	-324.29	1440.4	489.58	-377.63	1455.3	188.23	-389.7	1752.9	359.21	-277.26	1007.6	440.68	-298.57	1029.5	212.91	-486.11	1029.1	370.49	-488.37	1036.4	290.04	-347.24	929.56	518.13	-360.16	967.46	157.3	-365.28	1087.2	492.92	-368.27	1101.7	193.6	-507.83	997.78	335.49	-361.56	718.35	498.84	-319.67	636.64	453.33	-381.44	631.91	484.03	-297.47	724.66	464.54	-411.34	509.85	443.09	-427.6	521.51	316.58	-513.9	295.4	439.81	-459.21	225.89	417.31	-522.98	222.34	430.53	-443.54	301.39	426.32	-521.23	113.19	402.85	-514.54	127.64	324.64	-591.6	67.933	358.01	-581.78	38.505	332.01	-585.57	43.883	393.18	-412.68	40.006	436.91	-383.99	42.432	326.57	-325.07	57.382	369.62	-277.91	692.98	149.51	-176.48	650.62	162.45	-236.02	608.21	168.18	-210.66	733	143.41	-180.53	544.87	171.34	-143.34	545.81	297.34	-267.64	345.48	180.86	-211.87	250.63	177.71	-272.62	268.38	186.87	-206.66	327.02	171.53	-257.29	139.98	189.03	-225.17	147.17	270.24	-315.57	117.01	244.62	-303.35	83.806	275.47	-319.46	87.068	213.35	-156.61	51.562	146.2	-111.01	56.23	245.42	-66.155	65.202	190.64	-429.32	1500.5	362.85	-514.7	1292.8	362.92
234	0.97083	-228.43	1281.5	321.8	-318.7	1439.8	489.32	-372.82	1454.3	188.08	-384.47	1752.1	358.75	-272.29	1006.7	440.6	-293.43	1028.9	212.86	-481.05	1028.5	370.24	-483.27	1035.9	289.79	-342.72	928.77	517.98	-354.92	967.06	157.11	-360.28	1086.4	492.82	-363.04	1101.2	193.5	-502.78	997.26	335.19	-358.65	717.86	498.89	-317.42	635.77	453.4	-379.25	631.57	484.1	-294.52	723.62	464.61	-410.3	509.7	443.34	-426.33	521.43	316.76	-513.54	295.63	439.85	-458.95	225.98	417.53	-522.78	222.6	430.54	-443.13	301.45	426.55	-521.1	113.33	402.82	-514.26	127.78	324.65	-591.51	67.982	357.95	-581.73	38.586	331.98	-585.53	43.974	393.13	-412.67	39.973	436.94	-383.92	42.389	326.61	-325.01	57.278	369.68	-272.71	692.53	149.55	-171.54	649.95	163.05	-231.01	607.66	168.34	-205.4	732.46	143.91	-175.24	544.18	171.68	-138.94	545.11	297.86	-257.26	342.24	180.24	-198.77	249.04	177.33	-260.06	265.01	186.17	-195.72	325.53	171.26	-241.06	137.08	188.18	-209.42	144.91	269.63	-298.77	112.36	243.49	-285.79	79.467	274.41	-301.73	82.382	212.21	-137.75	51.435	145.68	-92.671	57.186	245.08	-47.868	67.468	190.49	-424.04	1499.8	362.84	-509.51	1292.1	363.23
235	0.975	-223.28	1280.6	321.59	-313.1	1439.3	489.05	-367.98	1453.4	187.91	-379.23	1751.4	358.29	-267.31	1005.8	440.51	-288.26	1028.3	212.81	-475.98	1027.9	369.98	-478.15	1035.4	289.53	-338.17	927.95	517.84	-349.65	966.6	156.93	-355.27	1085.5	492.72	-357.78	1100.6	193.39	-497.7	996.71	334.88	-355.72	717.36	498.93	-315.17	634.87	453.44	-377.04	631.22	484.18	-291.56	722.56	464.66	-409.22	509.54	443.56	-425.03	521.35	316.93	-513.17	295.86	439.87	-458.66	226.07	417.74	-522.57	222.87	430.54	-442.7	301.49	426.77	-520.96	113.48	402.79	-513.98	127.92	324.65	-591.43	68.031	357.89	-581.67	38.664	331.94	-585.49	44.067	393.06	-412.68	39.942	436.97	-383.85	42.342	326.65	-324.94	57.166	369.74	-267.61	691.97	149.59	-166.7	649.15	163.63	-226.14	607	168.49	-200.22	731.79	144.39	-170.07	543.37	172.01	-134.67	544.26	298.39	-246.88	339.04	179.61	-185.71	247.56	176.97	-247.5	261.74	185.47	-184.81	324.09	170.99	-224.82	134.36	187.34	-193.69	142.84	269.05	-281.91	107.93	242.38	-268.19	75.369	273.37	-283.94	77.944	211.09	-118.95	51.557	145.22	-74.446	58.369	244.81	-29.72	69.951	190.41	-418.74	1499.1	362.8	-504.3	1291.4	363.5
236	0.97917	-218.12	1279.7	321.37	-307.51	1438.6	488.76	-363.12	1452.4	187.72	-373.98	1750.6	357.83	-262.31	1004.8	440.42	-283.06	1027.7	212.75	-470.88	1027.2	369.72	-473.01	1034.8	289.27	-333.6	927.11	517.7	-344.37	966.08	156.75	-350.25	1084.6	492.61	-352.51	1100.1	193.26	-492.6	996.11	334.58	-352.77	716.83	498.98	-312.89	633.97	453.46	-374.8	630.86	484.24	-288.57	721.49	464.7	-408.1	509.37	443.77	-423.7	521.26	317.08	-512.77	296.1	439.88	-458.36	226.17	417.95	-522.34	223.14	430.54	-442.25	301.53	426.97	-520.82	113.63	402.75	-513.69	128.06	324.64	-591.34	68.081	357.82	-581.61	38.739	331.89	-585.45	44.16	392.99	-412.68	39.912	437	-383.77	42.291	326.69	-324.88	57.048	369.79	-262.62	691.31	149.64	-161.96	648.22	164.18	-221.4	606.21	168.63	-195.14	730.98	144.87	-165.01	542.45	172.32	-130.51	543.25	298.92	-236.51	335.89	178.98	-172.71	246.2	176.61	-234.94	258.59	184.77	-173.96	322.71	170.73	-208.58	131.83	186.54	-178	140.96	268.5	-265.03	103.72	241.29	-250.58	71.525	272.36	-266.12	73.766	210	-100.23	51.933	144.82	-56.354	59.784	244.6	-11.731	72.653	190.41	-413.42	1498.3	362.75	-499.07	1290.6	363.75
237	0.98333	-212.94	1278.7	321.14	-301.91	1437.9	488.46	-358.24	1451.3	187.51	-368.74	1749.7	357.36	-257.3	1003.8	440.32	-277.82	1027	212.68	-465.76	1026.5	369.46	-467.83	1034.2	289.01	-329	926.23	517.56	-339.07	965.49	156.58	-345.21	1083.6	492.5	-347.21	1099.4	193.12	-487.48	995.47	334.28	-349.8	716.28	499.02	-310.6	633.05	453.46	-372.53	630.48	484.3	-285.57	720.39	464.74	-406.94	509.21	443.96	-422.33	521.17	317.22	-512.35	296.35	439.88	-458.03	226.26	418.16	-522.09	223.43	430.53	-441.77	301.57	427.16	-520.67	113.8	402.71	-513.39	128.2	324.63	-591.25	68.132	357.74	-581.55	38.813	331.82	-585.41	44.256	392.92	-412.69	39.883	437.03	-383.69	42.236	326.73	-324.83	56.921	369.83	-257.74	690.54	149.7	-157.31	647.15	164.7	-216.79	605.31	168.74	-190.16	730.05	145.34	-160.05	541.42	172.62	-126.47	542.09	299.44	-226.14	332.81	178.35	-159.77	244.98	176.27	-222.39	255.55	184.08	-163.18	321.41	170.48	-192.37	129.52	185.77	-162.37	139.28	267.97	-248.14	99.759	240.21	-232.98	67.944	271.39	-248.29	69.859	208.93	-81.633	52.568	144.48	-38.419	61.434	244.47	6.0737	75.576	190.49	-408.09	1497.5	362.68	-493.81	1289.8	363.96
238	0.9875	-207.74	1277.7	320.89	-296.31	1437.1	488.14	-353.33	1450.3	187.29	-363.49	1748.8	356.9	-252.27	1002.8	440.23	-272.55	1026.3	212.6	-460.61	1025.8	369.19	-462.63	1033.5	288.73	-324.38	925.33	517.42	-333.74	964.83	156.4	-340.16	1082.7	492.38	-341.9	1098.7	192.97	-482.33	994.79	333.97	-346.79	715.72	499.07	-308.28	632.12	453.45	-370.23	630.1	484.35	-282.55	719.27	464.77	-405.73	509.04	444.13	-420.91	521.08	317.35	-511.9	296.6	439.88	-457.67	226.35	418.35	-521.82	223.72	430.51	-441.26	301.6	427.34	-520.51	113.97	402.67	-513.09	128.35	324.61	-591.17	68.186	357.65	-581.48	38.887	331.75	-585.37	44.354	392.84	-412.7	39.854	437.06	-383.61	42.178	326.76	-324.77	56.785	369.88	-252.97	689.67	149.75	-152.76	645.96	165.17	-212.32	604.3	168.84	-185.27	728.99	145.79	-155.19	540.3	172.91	-122.54	540.79	299.96	-215.8	329.8	177.73	-146.91	243.9	175.94	-209.88	252.64	183.41	-152.46	320.18	170.23	-176.22	127.42	185.03	-146.83	137.81	267.47	-231.28	96.043	239.16	-215.44	64.634	270.44	-230.5	66.229	207.89	-63.177	53.462	144.21	-20.667	63.317	244.4	23.671	78.717	190.65	-402.73	1496.6	362.59	-488.54	1288.9	364.13
239	0.99167	-202.54	1276.7	320.63	-290.71	1436.3	487.81	-348.39	1449.2	187.05	-358.23	1747.9	356.44	-247.22	1001.8	440.13	-267.26	1025.5	212.52	-455.44	1025	368.92	-457.4	1032.8	288.46	-319.73	924.4	517.28	-328.39	964.12	156.23	-335.08	1081.6	492.26	-336.58	1097.9	192.81	-477.15	994.06	333.67	-343.75	715.13	499.11	-305.93	631.18	453.42	-367.89	629.7	484.39	-279.49	718.15	464.8	-404.47	508.87	444.29	-419.44	520.98	317.46	-511.41	296.86	439.86	-457.29	226.44	418.53	-521.52	224.02	430.49	-440.71	301.63	427.5	-520.35	114.15	402.61	-512.78	128.5	324.59	-591.08	68.246	357.56	-581.41	38.963	331.67	-585.33	44.456	392.75	-412.71	39.824	437.09	-383.53	42.118	326.8	-324.71	56.641	369.91	-248.3	688.7	149.79	-148.3	644.65	165.6	-207.98	603.18	168.92	-180.47	727.81	146.22	-150.42	539.09	173.17	-118.7	539.36	300.48	-205.49	326.88	177.12	-134.16	242.95	175.63	-197.43	249.89	182.76	-141.83	319.03	170	-160.14	125.54	184.34	-131.4	136.55	267.01	-214.48	92.586	238.14	-197.98	61.6	269.54	-212.77	62.884	206.89	-44.894	54.613	144.01	-3.1257	65.431	244.42	41.034	82.072	190.9	-397.36	1495.7	362.48	-483.25	1288	364.28
240	0.99583	-197.32	1275.6	320.35	-285.1	1435.4	487.46	-343.44	1448	186.79	-352.97	1746.8	355.97	-242.15	1000.7	440.04	-261.93	1024.6	212.43	-450.25	1024.2	368.65	-452.14	1032	288.17	-315.06	923.45	517.14	-323.02	963.34	156.06	-329.98	1080.6	492.13	-331.25	1097.1	192.65	-471.95	993.29	333.36	-340.68	714.53	499.16	-303.54	630.24	453.38	-365.51	629.29	484.42	-276.41	717	464.82	-403.15	508.69	444.43	-417.91	520.87	317.55	-510.88	297.12	439.84	-456.87	226.53	418.7	-521.18	224.33	430.47	-440.12	301.65	427.64	-520.17	114.35	402.56	-512.46	128.66	324.55	-590.99	68.313	357.46	-581.34	39.043	331.58	-585.29	44.565	392.65	-412.72	39.793	437.12	-383.45	42.056	326.84	-324.65	56.488	369.95	-243.73	687.63	149.84	-143.93	643.23	165.98	-203.75	601.95	168.98	-175.76	726.52	146.62	-145.73	537.8	173.42	-114.94	537.8	300.98	-195.22	324.05	176.53	-121.52	242.15	175.35	-185.03	247.28	182.13	-131.3	317.97	169.78	-144.18	123.88	183.7	-116.11	135.5	266.57	-197.8	89.393	237.15	-180.63	58.845	268.69	-195.14	59.827	205.94	-26.815	56.019	143.89	14.178	67.768	244.51	58.137	85.633	191.24	-391.97	1494.7	362.35	-477.94	1287.1	364.39
